<?xml version="1.0" encoding="utf-8"?>
<!-- Generator: Adobe Illustrator 25.0.0, SVG Export Plug-In . SVG Version: 6.00 Build 0)  -->
<svg version="1.1" id="图层_1" xmlns="http://www.w3.org/2000/svg" xmlns:xlink="http://www.w3.org/1999/xlink" x="0px" y="0px"
	 viewBox="0 0 140 100" style="enable-background:new 0 0 140 100;" xml:space="preserve">
<style type="text/css">
	.st0{fill:none;stroke:#E40914;stroke-width:1.3483;stroke-miterlimit:10;}
	.st1{fill:#E40914;}
</style>
<path class="st0" d="M28.42,74.44"/>
<g>
	<path class="st1" d="M33.84,30.13c-0.28,0.14-0.43,0.18-0.52,0.16c-0.08-0.03-0.13-0.09-0.19-0.13l-0.38-0.28
		c-0.25-0.18-0.52-0.35-0.78-0.53c-0.53-0.33-1.06-0.65-1.61-0.94c-1.09-0.57-2.24-1-3.35-1.28c-2.26-0.59-4.35-0.29-5.74,0.53
		c-0.7,0.45-1.32,0.97-1.91,1.6c-0.29,0.34-0.58,0.67-0.86,1.04c-0.27,0.42-0.57,0.74-0.82,1.19c-1.07,1.68-2.11,3.62-3.02,5.75
		c-1.84,4.21-3.04,9.06-4.02,13.85l-0.33,1.78l-0.17,0.89l-0.08,0.45c-0.01,0.05-0.04,0.21-0.03,0.16c0.01-0.06-0.01,0.07-0.01,0.12
		c-0.12,1.12-0.19,2.34-0.23,3.52c-0.08,2.38,0.01,4.75,0.26,7.02c0.24,2.26,0.72,4.44,1.48,6.16c0.17,0.46,0.4,0.8,0.6,1.19
		c0.1,0.19,0.23,0.31,0.34,0.48c0.11,0.16,0.21,0.33,0.34,0.43c0.12,0.12,0.23,0.24,0.34,0.37c0.13,0.08,0.24,0.17,0.36,0.26
		c0.1,0.12,0.24,0.17,0.36,0.22c0.13,0.05,0.23,0.16,0.37,0.19c0.29,0.05,0.53,0.22,0.9,0.21c0.17,0.01,0.33,0.06,0.51,0.07
		c0.2-0.02,0.4-0.03,0.59-0.03c0.38,0.03,0.84-0.1,1.29-0.17c0.44-0.04,0.93-0.24,1.41-0.37c1.93-0.65,4-1.62,5.99-2.89
		c1.01-0.58,2-1.28,2.98-1.97c1-0.66,1.95-1.45,2.93-2.19c1.05-0.77,1.74-1.45,2.59-2.2l2.81-2.74c3.76-3.62,7.64-7.1,11.68-10.47
		c2.02-1.68,4.09-3.32,6.24-4.9c2.16-1.57,4.37-3.1,6.87-4.45c1.26-0.67,2.57-1.3,4.15-1.78c0.8-0.23,1.66-0.44,2.73-0.48
		c1.04-0.03,2.46,0.14,3.75,1.04c0.64,0.44,1.13,1.02,1.5,1.6c0.34,0.56,0.6,1.16,0.74,1.75c0.15,0.59,0.21,1.17,0.2,1.72
		l-0.02,0.98l-0.1,3.86l-0.1,3.86l-0.05,1.93c0.03,0.21-0.02,0.14,0.02,0.36c0.03,0.17,0.08,0.35,0.13,0.5
		c0.1,0.33,0.24,0.51,0.34,0.63c0.03,0.02,0.05,0.05,0.07,0.08c0.03,0.03,0.06,0.02,0.09,0.05c0.03,0.07,0.15,0.06,0.23,0.1
		c0.42,0.13,1.36-0.02,2.3-0.36c1.96-0.74,4.01-2.18,5.92-3.67l1.45-1.15l1.4-1.24c0.92-0.8,1.9-1.69,2.87-2.58
		c3.96-3.44,8.03-6.85,13.12-9.15c0.65-0.27,1.31-0.53,2.02-0.73c0.72-0.21,1.39-0.35,2.28-0.43c1.86-0.11,3.72,0.81,4.75,2.34
		c0.12,0.17,0.27,0.44,0.33,0.54l0.22,0.39l0.46,0.75c0.32,0.49,0.67,0.96,1.03,1.41c0.74,0.89,1.58,1.66,2.51,2.2
		c0.93,0.55,1.94,0.85,2.99,0.88c1.05-0.01,2.13-0.29,3.17-0.77c0.52-0.24,1.01-0.58,1.53-0.86l1.44-1.09l2.93-2.5l5.86-5.02
		l2.93-2.51l1.46-1.26l0.73-0.63l0.37-0.31c0.07-0.04,0.1-0.12,0.2-0.14c0.11,0,0.3,0.09,0.62,0.31l0,0
		c0.2,0.33,0.27,0.53,0.26,0.63c-0.02,0.09-0.11,0.12-0.16,0.19l-0.35,0.33l-0.7,0.66l-1.4,1.33l-2.81,2.65l-5.62,5.3l-2.82,2.65
		l-1.58,1.31c-0.59,0.37-1.15,0.79-1.78,1.12c-1.27,0.65-2.69,1.13-4.22,1.21c-1.53,0.04-3.07-0.35-4.39-1.05
		c-1.33-0.69-2.45-1.64-3.41-2.69c-0.47-0.53-0.92-1.07-1.33-1.64c-0.2-0.29-0.4-0.57-0.59-0.87l-0.28-0.44
		c-0.11-0.17-0.12-0.18-0.19-0.28c-0.45-0.59-1.22-0.91-1.92-0.82c-0.39,0.06-0.98,0.19-1.49,0.38c-0.53,0.17-1.06,0.41-1.58,0.66
		c-4.23,2.14-8.07,5.57-11.66,9.05c-0.89,0.89-1.77,1.78-2.74,2.72L87.4,56.7l-1.51,1.33c-2.05,1.75-4.15,3.48-6.96,4.74
		c-1.44,0.56-3.07,1.17-5.21,0.85c-0.54-0.11-1.07-0.21-1.59-0.5c-0.26-0.13-0.52-0.25-0.76-0.41c-0.23-0.17-0.45-0.35-0.67-0.53
		c-0.84-0.75-1.44-1.67-1.79-2.54c-0.19-0.45-0.33-0.88-0.44-1.34c-0.12-0.4-0.17-1.12-0.2-1.56l-0.05-1.93l-0.1-3.86l-0.1-3.86
		L68,46.15c-0.01-0.09-0.03-0.15-0.04-0.18c-0.01-0.03-0.04-0.02-0.03-0.01c0.01,0.05,0.08,0.13,0.18,0.21
		c0.23,0.16,0.29,0.13,0.06,0.15c-0.22,0.02-0.62,0.12-1.05,0.27c-0.87,0.32-1.87,0.84-2.86,1.43c-3.99,2.44-7.87,5.74-11.6,9.09
		c-3.74,3.38-7.35,6.95-10.91,10.56l-2.64,2.73c-1.03,1-2.18,2.13-3.19,2.91c-1.05,0.85-2.05,1.74-3.17,2.53
		c-1.09,0.82-2.18,1.64-3.38,2.39c-2.3,1.55-4.85,2.95-7.78,3.97c-0.75,0.24-1.46,0.52-2.3,0.65c-0.82,0.16-1.61,0.36-2.52,0.38
		l-1.33,0.07c-0.46-0.01-0.94-0.07-1.41-0.12c-0.93-0.05-1.9-0.37-2.85-0.65c-0.47-0.15-0.92-0.4-1.37-0.62
		c-0.46-0.22-0.9-0.46-1.29-0.76c-0.4-0.29-0.8-0.58-1.19-0.89c-0.34-0.33-0.68-0.66-1.01-1.01c-0.35-0.34-0.62-0.7-0.89-1.06
		c-0.26-0.36-0.56-0.72-0.78-1.09c-0.43-0.73-0.89-1.48-1.2-2.22c-1.37-2.98-1.98-5.89-2.36-8.73c-0.38-2.84-0.45-5.62-0.39-8.39
		c0.04-1.39,0.11-2.74,0.25-4.19l0.04-0.36c0.02-0.2,0.03-0.2,0.05-0.31l0.09-0.5l0.18-1.01l0.36-2.01c0.52-2.66,1.1-5.26,1.81-7.89
		c0.35-1.31,0.79-2.63,1.19-3.94c0.5-1.31,0.9-2.63,1.5-3.94c1.07-2.62,2.49-5.25,4.6-7.62c0.5-0.59,1.15-1.15,1.73-1.7
		c0.64-0.52,1.33-1.03,2.05-1.49c1.49-0.89,3.19-1.55,4.96-1.81c1.79-0.23,3.56-0.01,5.12,0.46c1.57,0.49,2.93,1.24,4.11,2.1
		c1.19,0.85,2.22,1.83,3.16,2.83c0.47,0.5,0.92,1.02,1.34,1.55c0.21,0.27,0.42,0.53,0.61,0.81l0.29,0.41
		c0.04,0.07,0.1,0.13,0.14,0.22c0.01,0.1-0.02,0.25-0.2,0.52L33.84,30.13z"/>
</g>
<g>
	<path class="st1" d="M114.84,15.64c0.46,0.05,0.57,0.12,0.64,0.2c0.09,0.08,0.17,0.15,0.21,0.23c0.08,0.16,0.06,0.32,0.08,0.48
		l0.04,0.96l0.04,1.92c-0.01,1.28-0.05,2.56-0.16,3.84c-0.11,1.28-0.26,2.56-0.5,3.84c-0.1,0.52-0.08,1.06,0.04,1.6
		c0.05,0.27,0.15,0.53,0.25,0.8c0.05,0.13,0.12,0.26,0.19,0.39c0.08,0.13,0.15,0.25,0.04,0.58c-0.33,0.1-0.47-0.01-0.59-0.13
		c-0.13-0.12-0.25-0.25-0.36-0.38c-0.23-0.27-0.41-0.58-0.56-0.91c-0.29-0.66-0.38-1.42-0.29-2.15c0.14-1.23,0.19-2.47,0.2-3.72
		c0-1.25,0-2.5-0.03-3.75l-0.05-1.87l-0.04-0.94c0-0.16-0.04-0.31,0.03-0.47c0.03-0.08,0.1-0.16,0.18-0.24
		c0.06-0.08,0.16-0.16,0.61-0.27L114.84,15.64z"/>
</g>
<g>
	<path class="st1" d="M125.2,13.42c0.22,0.16,0.32,0.1,0.41,0.18c0.08,0.06,0.14,0.1,0.18,0.16c0.08,0.12,0.11,0.23,0.15,0.35
		c0.05,0.25,0.05,0.5,0.08,0.75l0.13,1.52c0.08,1.01,0.16,2.03,0.21,3.05c0.12,2.03,0.16,4.08,0.06,6.12l0,0.04l0,0.01l-0.39,2.96
		c-0.06,0.5-0.14,0.99-0.17,1.45c-0.02,0.23-0.01,0.49-0.02,0.73c-0.02,0.25,0.1,0.49-0.48,0.75c-0.58-0.24-0.46-0.5-0.49-0.75
		c-0.01-0.26-0.02-0.5-0.02-0.77c0.01-0.54,0.06-1.03,0.1-1.53l0.24-2.98l0,0.05c-0.03-2-0.1-4.01-0.24-6.01
		c-0.07-1-0.15-2-0.25-3.01L124.55,15c-0.02-0.25-0.06-0.51-0.05-0.77c0.02-0.13,0.04-0.27,0.1-0.4c0.03-0.07,0.1-0.15,0.17-0.22
		C124.86,13.58,124.97,13.39,125.2,13.42z"/>
</g>
<g>
	<path class="st1" d="M133.5,47.03c0.73,0.12,1.08,0.28,1.24,0.45c0.16,0.17,0.09,0.36,0.13,0.54l0.1,1.09l0.19,2.18
		c0.1,1.46,0.18,2.91,0.24,4.37c0.08,2.92,0.09,5.85-0.12,8.8c-0.04,0.74-0.12,1.48-0.19,2.22l-0.24,2.16l-0.45,4.32
		c-0.14,1.44-0.28,2.88-0.38,4.31l-0.17,2.13c-0.07,0.71-0.04,1.39-0.43,2.04l-0.21,0.21c-0.6-0.3-0.66-0.74-0.8-1.11
		c-0.1-0.38-0.14-0.76-0.16-1.13c-0.04-0.75-0.07-1.48-0.06-2.21c0.03-1.46,0.08-2.92,0.14-4.37c0.1-2.88,0.32-5.85,0.31-8.64
		c-0.02-2.84-0.18-5.72-0.33-8.58l-0.22-4.31l-0.11-2.16l-0.06-1.08c0.01-0.18-0.08-0.35,0.05-0.54c0.13-0.19,0.45-0.4,1.15-0.64
		L133.5,47.03z"/>
</g>
</svg>
