<svg id="SvgjsSvg1001" width="1111" height="1023.5" xmlns="http://www.w3.org/2000/svg" version="1.1" xmlns:xlink="http://www.w3.org/1999/xlink" xmlns:svgjs="http://svgjs.com/svgjs"><defs id="SvgjsDefs1002"><marker id="SvgjsMarker1020" markerWidth="14" markerHeight="10" refX="10" refY="5" viewBox="0 0 14 10" orient="auto" markerUnits="userSpaceOnUse" stroke-dasharray="0,0"><path id="SvgjsPath1021" d="M0,0 L14,5 L0,10 L0,0" fill="#323232" stroke="#323232" stroke-width="1"></path></marker><marker id="SvgjsMarker1038" markerWidth="14" markerHeight="10" refX="10" refY="5" viewBox="0 0 14 10" orient="auto" markerUnits="userSpaceOnUse" stroke-dasharray="0,0"><path id="SvgjsPath1039" d="M0,0 L14,5 L0,10 L0,0" fill="#323232" stroke="#323232" stroke-width="1"></path></marker><marker id="SvgjsMarker1054" markerWidth="14" markerHeight="10" refX="10" refY="5" viewBox="0 0 14 10" orient="auto" markerUnits="userSpaceOnUse" stroke-dasharray="0,0"><path id="SvgjsPath1055" d="M0,0 L14,5 L0,10 L0,0" fill="#323232" stroke="#323232" stroke-width="1"></path></marker><marker id="SvgjsMarker1068" markerWidth="14" markerHeight="10" refX="10" refY="5" viewBox="0 0 14 10" orient="auto" markerUnits="userSpaceOnUse" stroke-dasharray="0,0"><path id="SvgjsPath1069" d="M0,0 L14,5 L0,10 L0,0" fill="#323232" stroke="#323232" stroke-width="1"></path></marker><marker id="SvgjsMarker1072" markerWidth="14" markerHeight="10" refX="10" refY="5" viewBox="0 0 14 10" orient="auto" markerUnits="userSpaceOnUse" stroke-dasharray="0,0"><path id="SvgjsPath1073" d="M0,0 L14,5 L0,10 L0,0" fill="#323232" stroke="#323232" stroke-width="1"></path></marker><marker id="SvgjsMarker1106" markerWidth="14" markerHeight="10" refX="10" refY="5" viewBox="0 0 14 10" orient="auto" markerUnits="userSpaceOnUse" stroke-dasharray="0,0"><path id="SvgjsPath1107" d="M0,0 L14,5 L0,10 L0,0" fill="#323232" stroke="#323232" stroke-width="1"></path></marker><marker id="SvgjsMarker1114" markerWidth="14" markerHeight="10" refX="10" refY="5" viewBox="0 0 14 10" orient="auto" markerUnits="userSpaceOnUse" stroke-dasharray="0,0"><path id="SvgjsPath1115" d="M0,0 L14,5 L0,10 L0,0" fill="#323232" stroke="#323232" stroke-width="1"></path></marker><marker id="SvgjsMarker1128" markerWidth="14" markerHeight="10" refX="10" refY="5" viewBox="0 0 14 10" orient="auto" markerUnits="userSpaceOnUse" stroke-dasharray="0,0"><path id="SvgjsPath1129" d="M0,0 L14,5 L0,10 L0,0" fill="#323232" stroke="#323232" stroke-width="1"></path></marker><marker id="SvgjsMarker1136" markerWidth="14" markerHeight="10" refX="10" refY="5" viewBox="0 0 14 10" orient="auto" markerUnits="userSpaceOnUse" stroke-dasharray="0,0"><path id="SvgjsPath1137" d="M0,0 L14,5 L0,10 L0,0" fill="#323232" stroke="#323232" stroke-width="1"></path></marker><marker id="SvgjsMarker1152" markerWidth="14" markerHeight="10" refX="10" refY="5" viewBox="0 0 14 10" orient="auto" markerUnits="userSpaceOnUse" stroke-dasharray="0,0"><path id="SvgjsPath1153" d="M0,0 L14,5 L0,10 L0,0" fill="#323232" stroke="#323232" stroke-width="1"></path></marker><marker id="SvgjsMarker1156" markerWidth="14" markerHeight="10" refX="10" refY="5" viewBox="0 0 14 10" orient="auto" markerUnits="userSpaceOnUse" stroke-dasharray="0,0"><path id="SvgjsPath1157" d="M0,0 L14,5 L0,10 L0,0" fill="#323232" stroke="#323232" stroke-width="1"></path></marker><marker id="SvgjsMarker1160" markerWidth="14" markerHeight="10" refX="10" refY="5" viewBox="0 0 14 10" orient="auto" markerUnits="userSpaceOnUse" stroke-dasharray="0,0"><path id="SvgjsPath1161" d="M0,0 L14,5 L0,10 L0,0" fill="#323232" stroke="#323232" stroke-width="1"></path></marker><marker id="SvgjsMarker1164" markerWidth="14" markerHeight="10" refX="10" refY="5" viewBox="0 0 14 10" orient="auto" markerUnits="userSpaceOnUse" stroke-dasharray="0,0"><path id="SvgjsPath1165" d="M0,0 L14,5 L0,10 L0,0" fill="#323232" stroke="#323232" stroke-width="1"></path></marker><marker id="SvgjsMarker1174" markerWidth="14" markerHeight="10" refX="10" refY="5" viewBox="0 0 14 10" orient="auto" markerUnits="userSpaceOnUse" stroke-dasharray="0,0"><path id="SvgjsPath1175" d="M0,0 L14,5 L0,10 L0,0" fill="#323232" stroke="#323232" stroke-width="1"></path></marker><marker id="SvgjsMarker1186" markerWidth="14" markerHeight="10" refX="10" refY="5" viewBox="0 0 14 10" orient="auto" markerUnits="userSpaceOnUse" stroke-dasharray="0,0"><path id="SvgjsPath1187" d="M0,0 L14,5 L0,10 L0,0" fill="#323232" stroke="#323232" stroke-width="1"></path></marker><marker id="SvgjsMarker1200" markerWidth="14" markerHeight="10" refX="10" refY="5" viewBox="0 0 14 10" orient="auto" markerUnits="userSpaceOnUse" stroke-dasharray="0,0"><path id="SvgjsPath1201" d="M0,0 L14,5 L0,10 L0,0" fill="#323232" stroke="#323232" stroke-width="1"></path></marker><marker id="SvgjsMarker1214" markerWidth="14" markerHeight="10" refX="10" refY="5" viewBox="0 0 14 10" orient="auto" markerUnits="userSpaceOnUse" stroke-dasharray="0,0"><path id="SvgjsPath1215" d="M0,0 L14,5 L0,10 L0,0" fill="#323232" stroke="#323232" stroke-width="1"></path></marker><marker id="SvgjsMarker1218" markerWidth="14" markerHeight="10" refX="10" refY="5" viewBox="0 0 14 10" orient="auto" markerUnits="userSpaceOnUse" stroke-dasharray="0,0"><path id="SvgjsPath1219" d="M0,0 L14,5 L0,10 L0,0" fill="#323232" stroke="#323232" stroke-width="1"></path></marker><marker id="SvgjsMarker1232" markerWidth="14" markerHeight="10" refX="10" refY="5" viewBox="0 0 14 10" orient="auto" markerUnits="userSpaceOnUse" stroke-dasharray="0,0"><path id="SvgjsPath1233" d="M0,0 L14,5 L0,10 L0,0" fill="#323232" stroke="#323232" stroke-width="1"></path></marker><marker id="SvgjsMarker1236" markerWidth="14" markerHeight="10" refX="10" refY="5" viewBox="0 0 14 10" orient="auto" markerUnits="userSpaceOnUse" stroke-dasharray="0,0"><path id="SvgjsPath1237" d="M0,0 L14,5 L0,10 L0,0" fill="#323232" stroke="#323232" stroke-width="1"></path></marker></defs><g id="SvgjsG1008" transform="translate(509,460.5)"><path id="SvgjsPath1009" d="M 0 0L 577 0L 577 109L 0 109L 0 0ZM 20 0L 20 109M 557 0L 557 109" stroke="rgba(33,41,48,1)" stroke-width="2" fill-opacity="1" fill="#ffffff"></path><g id="SvgjsG1010"><text id="SvgjsText1011" font-family="微软雅黑" text-anchor="middle" font-size="13px" width="537px" fill="#323232" font-weight="400" align="middle" lineHeight="125%" anchor="middle" family="微软雅黑" size="13px" weight="400" font-style="" opacity="1" y="43.875" transform="rotate(0)"></text></g></g><g id="SvgjsG1012" transform="translate(203,25)"><path id="SvgjsPath1013" d="M 16.666666666666668 0L 83.33333333333333 0C 105.55555555555556 0 105.55555555555556 50 83.33333333333333 50L 16.666666666666668 50C -5.555555555555556 50 -5.555555555555556 0 16.666666666666668 0Z" stroke="rgba(33,41,48,1)" stroke-width="2" fill-opacity="1" fill="#ffffff"></path><g id="SvgjsG1014"><text id="SvgjsText1015" font-family="微软雅黑" text-anchor="middle" font-size="13px" width="80px" fill="#323232" font-weight="400" align="middle" lineHeight="125%" anchor="middle" family="微软雅黑" size="13px" weight="400" font-style="" opacity="1" y="14.375" transform="rotate(0)"><tspan id="SvgjsTspan1016" dy="16" x="50"><tspan id="SvgjsTspan1017" style="text-decoration:;">了解到一本书</tspan></tspan></text></g></g><g id="SvgjsG1018"><path id="SvgjsPath1019" d="M253 76L253 103.5L253 103.5L253 128.4" stroke="#323232" stroke-width="2" fill="none" marker-end="url(#SvgjsMarker1020)"></path></g><g id="SvgjsG1022" transform="translate(208,132)"><path id="SvgjsPath1023" d="M 0 35L 45 0L 90 35L 45 70L 0 35Z" stroke="rgba(33,41,48,1)" stroke-width="2" fill-opacity="1" fill="#ffffff"></path><g id="SvgjsG1024"><text id="SvgjsText1025" font-family="微软雅黑" text-anchor="middle" font-size="13px" width="70px" fill="#323232" font-weight="400" align="middle" lineHeight="125%" anchor="middle" family="微软雅黑" size="13px" weight="400" font-style="" opacity="1" y="24.375" transform="rotate(0)"><tspan id="SvgjsTspan1026" dy="16" x="45"><tspan id="SvgjsTspan1027" style="text-decoration:;fill: rgb(50, 50, 50);">在豆瓣搜索</tspan></tspan></text></g></g><g id="SvgjsG1028" transform="translate(61,220)"><path id="SvgjsPath1029" d="M 0 0L 100 0L 100 70L 0 70Z" stroke="rgba(33,41,48,1)" stroke-width="2" fill-opacity="1" fill="#ffffff"></path><g id="SvgjsG1030"><text id="SvgjsText1031" font-family="微软雅黑" text-anchor="middle" font-size="13px" width="80px" fill="#323232" font-weight="400" align="middle" lineHeight="125%" anchor="middle" family="微软雅黑" size="13px" weight="400" font-style="" opacity="1" y="15.875" transform="rotate(0)"><tspan id="SvgjsTspan1032" dy="16" x="50"><tspan id="SvgjsTspan1033" style="text-decoration:;">加入豆瓣想读</tspan></tspan><tspan id="SvgjsTspan1034" dy="16" x="50"><tspan id="SvgjsTspan1035" style="text-decoration:;">列表</tspan></tspan></text></g></g><g id="SvgjsG1036"><path id="SvgjsPath1037" d="M207 167L111 167L111 216.39999999999998" stroke="#323232" stroke-width="2" fill="none" marker-end="url(#SvgjsMarker1038)"></path><rect id="SvgjsRect1040" width="65" height="16" x="126.03333333333333" y="159" fill="#ffffff"></rect><text id="SvgjsText1041" font-family="微软雅黑" text-anchor="middle" font-size="13px" width="65px" fill="#323232" font-weight="400" align="top" lineHeight="16px" anchor="middle" family="微软雅黑" size="13px" weight="400" font-style="" opacity="1" y="156.375" transform="rotate(0)"><tspan id="SvgjsTspan1042" dy="16" x="158.53333333333333"><tspan id="SvgjsTspan1043" style="text-decoration:;">可以搜索到</tspan></tspan></text></g><g id="SvgjsG1044" transform="translate(366,220)"><path id="SvgjsPath1045" d="M 0 0L 100 0L 100 70L 0 70Z" stroke="rgba(33,41,48,1)" stroke-width="2" fill-opacity="1" fill="#ffffff"></path><g id="SvgjsG1046"><text id="SvgjsText1047" font-family="微软雅黑" text-anchor="middle" font-size="13px" width="80px" fill="#323232" font-weight="400" align="middle" lineHeight="125%" anchor="middle" family="微软雅黑" size="13px" weight="400" font-style="" opacity="1" y="15.875" transform="rotate(0)"><tspan id="SvgjsTspan1048" dy="16" x="50"><tspan id="SvgjsTspan1049" style="text-decoration:;">加入关于书的</tspan></tspan><tspan id="SvgjsTspan1050" dy="16" x="50"><tspan id="SvgjsTspan1051" style="text-decoration:;">ToDoList</tspan></tspan></text></g></g><g id="SvgjsG1052"><path id="SvgjsPath1053" d="M299 167L416 167L416 216.39999999999998" stroke="#323232" stroke-width="2" fill="none" marker-end="url(#SvgjsMarker1054)"></path><rect id="SvgjsRect1056" width="52" height="16" x="336.2514619883041" y="159" fill="#ffffff"></rect><text id="SvgjsText1057" font-family="微软雅黑" text-anchor="middle" font-size="13px" width="52px" fill="#323232" font-weight="400" align="top" lineHeight="16px" anchor="middle" family="微软雅黑" size="13px" weight="400" font-style="" opacity="1" y="156.375" transform="rotate(0)"><tspan id="SvgjsTspan1058" dy="16" x="362.2514619883041"><tspan id="SvgjsTspan1059" style="text-decoration:;">搜索不到</tspan></tspan></text></g><g id="SvgjsG1060" transform="translate(194,350)"><path id="SvgjsPath1061" d="M 0 40.5L 59 0L 118 40.5L 59 81L 0 40.5Z" stroke="rgba(33,41,48,1)" stroke-width="2" fill-opacity="1" fill="#ffffff"></path><g id="SvgjsG1062"><text id="SvgjsText1063" font-family="微软雅黑" text-anchor="middle" font-size="13px" width="98px" fill="#323232" font-weight="400" align="middle" lineHeight="125%" anchor="middle" family="微软雅黑" size="13px" weight="400" font-style="" opacity="1" y="29.875" transform="rotate(0)"><tspan id="SvgjsTspan1064" dy="16" x="59"><tspan id="SvgjsTspan1065" style="text-decoration:;">查找图书馆资源</tspan></tspan></text></g></g><g id="SvgjsG1066"><path id="SvgjsPath1067" d="M111 291L111 320L253 320L253 346.4" stroke="#323232" stroke-width="2" fill="none" marker-end="url(#SvgjsMarker1068)"></path></g><g id="SvgjsG1070"><path id="SvgjsPath1071" d="M416 291L416 320L253 320L253 346.4" stroke="#323232" stroke-width="2" fill="none" marker-end="url(#SvgjsMarker1072)"></path></g><g id="SvgjsG1074" transform="translate(50,480)"><path id="SvgjsPath1075" d="M 0 0L 100 0L 100 70L 0 70Z" stroke="rgba(33,41,48,1)" stroke-width="2" fill-opacity="1" fill="#ffffff"></path><g id="SvgjsG1076"><text id="SvgjsText1077" font-family="微软雅黑" text-anchor="middle" font-size="13px" width="80px" fill="#323232" font-weight="400" align="middle" lineHeight="125%" anchor="middle" family="微软雅黑" size="13px" weight="400" font-style="" opacity="1" y="24.375" transform="rotate(0)"><tspan id="SvgjsTspan1078" dy="16" x="50"><tspan id="SvgjsTspan1079" style="text-decoration:;">借阅</tspan></tspan></text></g></g><g id="SvgjsG1080" transform="translate(390,480)"><path id="SvgjsPath1081" d="M 0 0L 100 0L 100 70L 0 70Z" stroke="rgba(33,41,48,1)" stroke-width="2" fill-opacity="1" fill="#ffffff"></path><g id="SvgjsG1082"><text id="SvgjsText1083" font-family="微软雅黑" text-anchor="middle" font-size="13px" width="80px" fill="#323232" font-weight="400" align="middle" lineHeight="125%" anchor="middle" family="微软雅黑" size="13px" weight="400" font-style="" opacity="1" y="24.375" transform="rotate(0)"><tspan id="SvgjsTspan1084" dy="16" x="50"><tspan id="SvgjsTspan1085" style="text-decoration:;">购买</tspan></tspan></text></g></g><g id="SvgjsG1086" transform="translate(535.5,480)"><path id="SvgjsPath1087" d="M 0 35L 50 0L 100 35L 50 70L 0 35Z" stroke="rgba(33,41,48,1)" stroke-width="2" fill-opacity="1" fill="#ffffff"></path><g id="SvgjsG1088"><text id="SvgjsText1089" font-family="微软雅黑" text-anchor="middle" font-size="13px" width="80px" fill="#323232" font-weight="400" align="middle" lineHeight="125%" anchor="middle" family="微软雅黑" size="13px" weight="400" font-style="" opacity="1" y="24.375" transform="rotate(0)"><tspan id="SvgjsTspan1090" dy="16" x="50"><tspan id="SvgjsTspan1091" style="text-decoration:;">多抓鱼</tspan></tspan></text></g></g><g id="SvgjsG1092" transform="translate(655.5,480)"><path id="SvgjsPath1093" d="M 0 35L 50 0L 100 35L 50 70L 0 35Z" stroke="rgba(33,41,48,1)" stroke-width="2" fill-opacity="1" fill="#ffffff"></path><g id="SvgjsG1094"><text id="SvgjsText1095" font-family="微软雅黑" text-anchor="middle" font-size="13px" width="80px" fill="#323232" font-weight="400" align="middle" lineHeight="125%" anchor="middle" family="微软雅黑" size="13px" weight="400" font-style="" opacity="1" y="24.375" transform="rotate(0)"><tspan id="SvgjsTspan1096" dy="16" x="50"><tspan id="SvgjsTspan1097" style="text-decoration:;">当当</tspan></tspan></text></g></g><g id="SvgjsG1098" transform="translate(775.5,475.5234375)"><path id="SvgjsPath1099" d="M 0 39.4765625L 59 0L 118 39.4765625L 59 78.953125L 0 39.4765625Z" stroke="rgba(33,41,48,1)" stroke-width="2" fill-opacity="1" fill="#ffffff"></path><g id="SvgjsG1100"><text id="SvgjsText1101" font-family="微软雅黑" text-anchor="middle" font-size="13px" width="98px" fill="#323232" font-weight="400" align="middle" lineHeight="125%" anchor="middle" family="微软雅黑" size="13px" weight="400" font-style="" opacity="1" y="28.8515625" transform="rotate(0)"><tspan id="SvgjsTspan1102" dy="16" x="59"><tspan id="SvgjsTspan1103" style="text-decoration:;">出版社推荐渠道</tspan></tspan></text></g></g><g id="SvgjsG1104"><path id="SvgjsPath1105" d="M193 390.5L100 390.5L100 476.4" stroke="#323232" stroke-width="2" fill="none" marker-end="url(#SvgjsMarker1106)"></path><rect id="SvgjsRect1108" width="13" height="16" x="142.62806539509535" y="382.5" fill="#ffffff"></rect><text id="SvgjsText1109" font-family="微软雅黑" text-anchor="middle" font-size="13px" width="13px" fill="#323232" font-weight="400" align="top" lineHeight="16px" anchor="middle" family="微软雅黑" size="13px" weight="400" font-style="" opacity="1" y="379.875" transform="rotate(0)"><tspan id="SvgjsTspan1110" dy="16" x="149.12806539509535"><tspan id="SvgjsTspan1111" style="text-decoration:;">有</tspan></tspan></text></g><g id="SvgjsG1112"><path id="SvgjsPath1113" d="M313 390.5L349.9333333333334 390.5L349.9333333333334 390.5L384.26666666666665 390.5" stroke="#323232" stroke-width="2" fill="none" marker-end="url(#SvgjsMarker1114)"></path><rect id="SvgjsRect1116" width="26" height="16" x="330.9991212653779" y="382.5" fill="#ffffff"></rect><text id="SvgjsText1117" font-family="微软雅黑" text-anchor="middle" font-size="13px" width="26px" fill="#323232" font-weight="400" align="top" lineHeight="16px" anchor="middle" family="微软雅黑" size="13px" weight="400" font-style="" opacity="1" y="379.875" transform="rotate(0)"><tspan id="SvgjsTspan1118" dy="16" x="343.9991212653779"><tspan id="SvgjsTspan1119" style="text-decoration:;">没有</tspan></tspan></text></g><g id="SvgjsG1120" transform="translate(389,355.5)"><path id="SvgjsPath1121" d="M 0 35L 51 0L 102 35L 51 70L 0 35Z" stroke="rgba(33,41,48,1)" stroke-width="2" fill-opacity="1" fill="#ffffff"></path><g id="SvgjsG1122"><text id="SvgjsText1123" font-family="微软雅黑" text-anchor="middle" font-size="13px" width="82px" fill="#323232" font-weight="400" align="middle" lineHeight="125%" anchor="middle" family="微软雅黑" size="13px" weight="400" font-style="" opacity="1" y="24.375" transform="rotate(0)"><tspan id="SvgjsTspan1124" dy="16" x="51"><tspan id="SvgjsTspan1125" style="text-decoration:;">根据喜欢程度</tspan></tspan></text></g></g><g id="SvgjsG1126"><path id="SvgjsPath1127" d="M440 426.5L440 452.75L440 452.75L440 476.4" stroke="#323232" stroke-width="2" fill="none" marker-end="url(#SvgjsMarker1128)"></path><rect id="SvgjsRect1130" width="26" height="16" x="426.99999999999994" y="432.691743119266" fill="#ffffff"></rect><text id="SvgjsText1131" font-family="微软雅黑" text-anchor="middle" font-size="13px" width="26px" fill="#323232" font-weight="400" align="top" lineHeight="16px" anchor="middle" family="微软雅黑" size="13px" weight="400" font-style="" opacity="1" y="430.066743119266" transform="rotate(0)"><tspan id="SvgjsTspan1132" dy="16" x="439.99999999999994"><tspan id="SvgjsTspan1133" style="text-decoration:;">喜欢</tspan></tspan></text></g><g id="SvgjsG1134"><path id="SvgjsPath1135" d="M440 354.5L440 319.75L416 319.75L416 293.6" stroke="#323232" stroke-width="2" fill="none" marker-end="url(#SvgjsMarker1136)"></path><rect id="SvgjsRect1138" width="52" height="16" x="414" y="324.2078212290503" fill="#ffffff"></rect><text id="SvgjsText1139" font-family="微软雅黑" text-anchor="middle" font-size="13px" width="52px" fill="#323232" font-weight="400" align="top" lineHeight="16px" anchor="middle" family="微软雅黑" size="13px" weight="400" font-style="" opacity="1" y="321.5828212290503" transform="rotate(0)"><tspan id="SvgjsTspan1140" dy="16" x="440"><tspan id="SvgjsTspan1141" style="text-decoration:;">感觉一般</tspan></tspan></text></g><g id="SvgjsG1142" transform="translate(913.5,462.5234375)"><path id="SvgjsPath1143" d="M 0 52.4765625L 72.5 0L 145 52.4765625L 72.5 104.953125L 0 52.4765625Z" stroke="rgba(33,41,48,1)" stroke-width="2" fill-opacity="1" fill="#ffffff"></path><g id="SvgjsG1144"><text id="SvgjsText1145" font-family="微软雅黑" text-anchor="middle" font-size="13px" width="125px" fill="#323232" font-weight="400" align="middle" lineHeight="125%" anchor="middle" family="微软雅黑" size="13px" weight="400" font-style="" opacity="1" y="33.3515625" transform="rotate(0)"><tspan id="SvgjsTspan1146" dy="16" x="72.5"><tspan id="SvgjsTspan1147" style="text-decoration:;">京东或者其他可以买</tspan></tspan><tspan id="SvgjsTspan1148" dy="16" x="72.5"><tspan id="SvgjsTspan1149" style="text-decoration:;">到正版的渠道</tspan></tspan></text></g></g><g id="SvgjsG1150"><path id="SvgjsPath1151" d="M491 515L512.75 515L512.75 515L531.9000000000001 515" stroke="#323232" stroke-width="2" fill="none" marker-end="url(#SvgjsMarker1152)"></path></g><g id="SvgjsG1154"><path id="SvgjsPath1155" d="M636.5 515L645.5 515L645.5 515L651.9000000000001 515" stroke="#323232" stroke-width="2" fill="none" marker-end="url(#SvgjsMarker1156)"></path></g><g id="SvgjsG1158"><path id="SvgjsPath1159" d="M756.5 515L765.5 515L765.5 515L771.9000000000001 515" stroke="#323232" stroke-width="2" fill="none" marker-end="url(#SvgjsMarker1160)"></path></g><g id="SvgjsG1162"><path id="SvgjsPath1163" d="M894.5 515L903.5 515L903.5 515L909.9000000000001 515" stroke="#323232" stroke-width="2" fill="none" marker-end="url(#SvgjsMarker1164)"></path></g><g id="SvgjsG1166" transform="translate(266,666.796875)"><path id="SvgjsPath1167" d="M 0 0L 100 0L 100 70L 0 70Z" stroke="rgba(33,41,48,1)" stroke-width="2" fill-opacity="1" fill="#ffffff"></path><g id="SvgjsG1168"><text id="SvgjsText1169" font-family="微软雅黑" text-anchor="middle" font-size="13px" width="80px" fill="#323232" font-weight="400" align="middle" lineHeight="125%" anchor="middle" family="微软雅黑" size="13px" weight="400" font-style="" opacity="1" y="24.375" transform="rotate(0)"><tspan id="SvgjsTspan1170" dy="16" x="50"><tspan id="SvgjsTspan1171" style="text-decoration:;">阅读</tspan></tspan></text></g></g><g id="SvgjsG1172"><path id="SvgjsPath1173" d="M316 737.796875L316 754.3984375L316 754.3984375L316 768.4" stroke="#323232" stroke-width="2" fill="none" marker-end="url(#SvgjsMarker1174)"></path></g><g id="SvgjsG1176" transform="translate(271,772)"><path id="SvgjsPath1177" d="M 0 46L 45 0L 90 46L 45 92L 0 46Z" stroke="rgba(33,41,48,1)" stroke-width="2" fill-opacity="1" fill="#ffffff"></path><g id="SvgjsG1178"><text id="SvgjsText1179" font-family="微软雅黑" text-anchor="middle" font-size="13px" width="70px" fill="#323232" font-weight="400" align="middle" lineHeight="125%" anchor="middle" family="微软雅黑" size="13px" weight="400" font-style="" opacity="1" y="26.875" transform="rotate(0)"><tspan id="SvgjsTspan1180" dy="16" x="45"><tspan id="SvgjsTspan1181" style="text-decoration:;">更具喜欢程</tspan></tspan><tspan id="SvgjsTspan1182" dy="16" x="45"><tspan id="SvgjsTspan1183" style="text-decoration:;">度</tspan></tspan></text></g></g><g id="SvgjsG1184"><path id="SvgjsPath1185" d="M316 865L316 896.25L316 896.25L316 924.9" stroke="#323232" stroke-width="2" fill="none" marker-end="url(#SvgjsMarker1186)"></path><rect id="SvgjsRect1188" width="26" height="16" x="303" y="875.5736434108528" fill="#ffffff"></rect><text id="SvgjsText1189" font-family="微软雅黑" text-anchor="middle" font-size="13px" width="26px" fill="#323232" font-weight="400" align="top" lineHeight="16px" anchor="middle" family="微软雅黑" size="13px" weight="400" font-style="" opacity="1" y="872.9486434108528" transform="rotate(0)"><tspan id="SvgjsTspan1190" dy="16" x="316"><tspan id="SvgjsTspan1191" style="text-decoration:;">通常</tspan></tspan></text></g><g id="SvgjsG1192" transform="translate(266,928.5)"><path id="SvgjsPath1193" d="M 0 0L 100 0L 100 70L 0 70Z" stroke="rgba(33,41,48,1)" stroke-width="2" fill-opacity="1" fill="#ffffff"></path><g id="SvgjsG1194"><text id="SvgjsText1195" font-family="微软雅黑" text-anchor="middle" font-size="13px" width="80px" fill="#323232" font-weight="400" align="middle" lineHeight="125%" anchor="middle" family="微软雅黑" size="13px" weight="400" font-style="" opacity="1" y="24.375" transform="rotate(0)"><tspan id="SvgjsTspan1196" dy="16" x="50"><tspan id="SvgjsTspan1197" style="text-decoration:;">在豆瓣标记</tspan></tspan></text></g></g><g id="SvgjsG1198"><path id="SvgjsPath1199" d="M362 818L426 818L426 818L487.4000000000001 818" stroke="#323232" stroke-width="2" fill="none" marker-end="url(#SvgjsMarker1200)"></path><rect id="SvgjsRect1202" width="52" height="16" x="394.02089552238806" y="810" fill="#ffffff"></rect><text id="SvgjsText1203" font-family="微软雅黑" text-anchor="middle" font-size="13px" width="52px" fill="#323232" font-weight="400" align="top" lineHeight="16px" anchor="middle" family="微软雅黑" size="13px" weight="400" font-style="" opacity="1" y="807.375" transform="rotate(0)"><tspan id="SvgjsTspan1204" dy="16" x="420.02089552238806"><tspan id="SvgjsTspan1205" style="text-decoration:;">特别喜欢</tspan></tspan></text></g><g id="SvgjsG1206" transform="translate(491,783)"><path id="SvgjsPath1207" d="M 0 0L 100 0L 100 70L 0 70Z" stroke="rgba(33,41,48,1)" stroke-width="2" fill-opacity="1" fill="#ffffff"></path><g id="SvgjsG1208"><text id="SvgjsText1209" font-family="微软雅黑" text-anchor="middle" font-size="13px" width="80px" fill="#323232" font-weight="400" align="middle" lineHeight="125%" anchor="middle" family="微软雅黑" size="13px" weight="400" font-style="" opacity="1" y="24.375" transform="rotate(0)"><tspan id="SvgjsTspan1210" dy="16" x="50"><tspan id="SvgjsTspan1211" style="text-decoration:;">收藏</tspan></tspan></text></g></g><g id="SvgjsG1212"><path id="SvgjsPath1213" d="M541 782L541 655.5L440 655.5L440 553.6" stroke="#323232" stroke-width="2" fill="none" marker-end="url(#SvgjsMarker1214)"></path></g><g id="SvgjsG1216"><path id="SvgjsPath1217" d="M270 818L198 818L198 818L128.60000000000002 818" stroke="#323232" stroke-width="2" fill="none" marker-end="url(#SvgjsMarker1218)"></path><rect id="SvgjsRect1220" width="91" height="16" x="153.21570247933886" y="810" fill="#ffffff"></rect><text id="SvgjsText1221" font-family="微软雅黑" text-anchor="middle" font-size="13px" width="91px" fill="#323232" font-weight="400" align="top" lineHeight="16px" anchor="middle" family="微软雅黑" size="13px" weight="400" font-style="" opacity="1" y="807.375" transform="rotate(0)"><tspan id="SvgjsTspan1222" dy="16" x="198.71570247933886"><tspan id="SvgjsTspan1223" style="text-decoration:;">很有感悟或收获</tspan></tspan></text></g><g id="SvgjsG1224" transform="translate(25,783)"><path id="SvgjsPath1225" d="M 0 0L 100 0L 100 70L 0 70Z" stroke="rgba(33,41,48,1)" stroke-width="2" fill-opacity="1" fill="#ffffff"></path><g id="SvgjsG1226"><text id="SvgjsText1227" font-family="微软雅黑" text-anchor="middle" font-size="13px" width="80px" fill="#323232" font-weight="400" align="middle" lineHeight="125%" anchor="middle" family="微软雅黑" size="13px" weight="400" font-style="" opacity="1" y="24.375" transform="rotate(0)"><tspan id="SvgjsTspan1228" dy="16" x="50"><tspan id="SvgjsTspan1229" style="text-decoration:;">整理与记录</tspan></tspan></text></g></g><g id="SvgjsG1230"><path id="SvgjsPath1231" d="M151 515L316 515L316 663.196875" stroke="#323232" stroke-width="2" fill="none" marker-end="url(#SvgjsMarker1232)"></path></g><g id="SvgjsG1234"><path id="SvgjsPath1235" d="M389 515L316 515L316 663.196875" stroke="#323232" stroke-width="2" fill="none" marker-end="url(#SvgjsMarker1236)"></path></g></svg>