<svg xmlns="http://www.w3.org/2000/svg" xmlns:svgjs="http://svgjs.com/svgjs" xmlns:xlink="http://www.w3.org/1999/xlink" id="SvgjsSvg1001" width="1111" height="1023.5" version="1.1"><defs id="SvgjsDefs1002"><marker id="SvgjsMarker1020" stroke-dasharray="0 0" markerHeight="10" markerUnits="userSpaceOnUse" markerWidth="14" orient="auto" refX="10" refY="5" viewBox="0 0 14 10"><path id="SvgjsPath1021" fill="#323232" stroke="#323232" stroke-width="1" d="M0,0 L14,5 L0,10 L0,0"/></marker><marker id="SvgjsMarker1038" stroke-dasharray="0 0" markerHeight="10" markerUnits="userSpaceOnUse" markerWidth="14" orient="auto" refX="10" refY="5" viewBox="0 0 14 10"><path id="SvgjsPath1039" fill="#323232" stroke="#323232" stroke-width="1" d="M0,0 L14,5 L0,10 L0,0"/></marker><marker id="SvgjsMarker1054" stroke-dasharray="0 0" markerHeight="10" markerUnits="userSpaceOnUse" markerWidth="14" orient="auto" refX="10" refY="5" viewBox="0 0 14 10"><path id="SvgjsPath1055" fill="#323232" stroke="#323232" stroke-width="1" d="M0,0 L14,5 L0,10 L0,0"/></marker><marker id="SvgjsMarker1068" stroke-dasharray="0 0" markerHeight="10" markerUnits="userSpaceOnUse" markerWidth="14" orient="auto" refX="10" refY="5" viewBox="0 0 14 10"><path id="SvgjsPath1069" fill="#323232" stroke="#323232" stroke-width="1" d="M0,0 L14,5 L0,10 L0,0"/></marker><marker id="SvgjsMarker1072" stroke-dasharray="0 0" markerHeight="10" markerUnits="userSpaceOnUse" markerWidth="14" orient="auto" refX="10" refY="5" viewBox="0 0 14 10"><path id="SvgjsPath1073" fill="#323232" stroke="#323232" stroke-width="1" d="M0,0 L14,5 L0,10 L0,0"/></marker><marker id="SvgjsMarker1106" stroke-dasharray="0 0" markerHeight="10" markerUnits="userSpaceOnUse" markerWidth="14" orient="auto" refX="10" refY="5" viewBox="0 0 14 10"><path id="SvgjsPath1107" fill="#323232" stroke="#323232" stroke-width="1" d="M0,0 L14,5 L0,10 L0,0"/></marker><marker id="SvgjsMarker1114" stroke-dasharray="0 0" markerHeight="10" markerUnits="userSpaceOnUse" markerWidth="14" orient="auto" refX="10" refY="5" viewBox="0 0 14 10"><path id="SvgjsPath1115" fill="#323232" stroke="#323232" stroke-width="1" d="M0,0 L14,5 L0,10 L0,0"/></marker><marker id="SvgjsMarker1128" stroke-dasharray="0 0" markerHeight="10" markerUnits="userSpaceOnUse" markerWidth="14" orient="auto" refX="10" refY="5" viewBox="0 0 14 10"><path id="SvgjsPath1129" fill="#323232" stroke="#323232" stroke-width="1" d="M0,0 L14,5 L0,10 L0,0"/></marker><marker id="SvgjsMarker1136" stroke-dasharray="0 0" markerHeight="10" markerUnits="userSpaceOnUse" markerWidth="14" orient="auto" refX="10" refY="5" viewBox="0 0 14 10"><path id="SvgjsPath1137" fill="#323232" stroke="#323232" stroke-width="1" d="M0,0 L14,5 L0,10 L0,0"/></marker><marker id="SvgjsMarker1152" stroke-dasharray="0 0" markerHeight="10" markerUnits="userSpaceOnUse" markerWidth="14" orient="auto" refX="10" refY="5" viewBox="0 0 14 10"><path id="SvgjsPath1153" fill="#323232" stroke="#323232" stroke-width="1" d="M0,0 L14,5 L0,10 L0,0"/></marker><marker id="SvgjsMarker1156" stroke-dasharray="0 0" markerHeight="10" markerUnits="userSpaceOnUse" markerWidth="14" orient="auto" refX="10" refY="5" viewBox="0 0 14 10"><path id="SvgjsPath1157" fill="#323232" stroke="#323232" stroke-width="1" d="M0,0 L14,5 L0,10 L0,0"/></marker><marker id="SvgjsMarker1160" stroke-dasharray="0 0" markerHeight="10" markerUnits="userSpaceOnUse" markerWidth="14" orient="auto" refX="10" refY="5" viewBox="0 0 14 10"><path id="SvgjsPath1161" fill="#323232" stroke="#323232" stroke-width="1" d="M0,0 L14,5 L0,10 L0,0"/></marker><marker id="SvgjsMarker1164" stroke-dasharray="0 0" markerHeight="10" markerUnits="userSpaceOnUse" markerWidth="14" orient="auto" refX="10" refY="5" viewBox="0 0 14 10"><path id="SvgjsPath1165" fill="#323232" stroke="#323232" stroke-width="1" d="M0,0 L14,5 L0,10 L0,0"/></marker><marker id="SvgjsMarker1174" stroke-dasharray="0 0" markerHeight="10" markerUnits="userSpaceOnUse" markerWidth="14" orient="auto" refX="10" refY="5" viewBox="0 0 14 10"><path id="SvgjsPath1175" fill="#323232" stroke="#323232" stroke-width="1" d="M0,0 L14,5 L0,10 L0,0"/></marker><marker id="SvgjsMarker1186" stroke-dasharray="0 0" markerHeight="10" markerUnits="userSpaceOnUse" markerWidth="14" orient="auto" refX="10" refY="5" viewBox="0 0 14 10"><path id="SvgjsPath1187" fill="#323232" stroke="#323232" stroke-width="1" d="M0,0 L14,5 L0,10 L0,0"/></marker><marker id="SvgjsMarker1200" stroke-dasharray="0 0" markerHeight="10" markerUnits="userSpaceOnUse" markerWidth="14" orient="auto" refX="10" refY="5" viewBox="0 0 14 10"><path id="SvgjsPath1201" fill="#323232" stroke="#323232" stroke-width="1" d="M0,0 L14,5 L0,10 L0,0"/></marker><marker id="SvgjsMarker1214" stroke-dasharray="0 0" markerHeight="10" markerUnits="userSpaceOnUse" markerWidth="14" orient="auto" refX="10" refY="5" viewBox="0 0 14 10"><path id="SvgjsPath1215" fill="#323232" stroke="#323232" stroke-width="1" d="M0,0 L14,5 L0,10 L0,0"/></marker><marker id="SvgjsMarker1218" stroke-dasharray="0 0" markerHeight="10" markerUnits="userSpaceOnUse" markerWidth="14" orient="auto" refX="10" refY="5" viewBox="0 0 14 10"><path id="SvgjsPath1219" fill="#323232" stroke="#323232" stroke-width="1" d="M0,0 L14,5 L0,10 L0,0"/></marker><marker id="SvgjsMarker1232" stroke-dasharray="0 0" markerHeight="10" markerUnits="userSpaceOnUse" markerWidth="14" orient="auto" refX="10" refY="5" viewBox="0 0 14 10"><path id="SvgjsPath1233" fill="#323232" stroke="#323232" stroke-width="1" d="M0,0 L14,5 L0,10 L0,0"/></marker><marker id="SvgjsMarker1236" stroke-dasharray="0 0" markerHeight="10" markerUnits="userSpaceOnUse" markerWidth="14" orient="auto" refX="10" refY="5" viewBox="0 0 14 10"><path id="SvgjsPath1237" fill="#323232" stroke="#323232" stroke-width="1" d="M0,0 L14,5 L0,10 L0,0"/></marker></defs><g id="SvgjsG1008" transform="translate(509,460.5)"><path id="SvgjsPath1009" fill="#fff" fill-opacity="1" stroke="rgba(33,41,48,1)" stroke-width="2" d="M 0 0L 577 0L 577 109L 0 109L 0 0ZM 20 0L 20 109M 557 0L 557 109"/></g><g id="SvgjsG1012" transform="translate(203,25)"><path id="SvgjsPath1013" fill="#fff" fill-opacity="1" stroke="rgba(33,41,48,1)" stroke-width="2" d="M 16.666666666666668 0L 83.33333333333333 0C 105.55555555555556 0 105.55555555555556 50 83.33333333333333 50L 16.666666666666668 50C -5.555555555555556 50 -5.555555555555556 0 16.666666666666668 0Z"/><g id="SvgjsG1014"><text id="SvgjsText1015" width="80" y="14.375" fill="#323232" align="middle" anchor="middle" family="微软雅黑" font-family="微软雅黑" font-size="13" font-weight="400" lineHeight="125%" opacity="1" size="13" text-anchor="middle" transform="rotate(0)" weight="400"><tspan id="SvgjsTspan1016" x="50" dy="16"><tspan id="SvgjsTspan1017">了解到一本书</tspan></tspan></text></g></g><g id="SvgjsG1018"><path id="SvgjsPath1019" fill="none" stroke="#323232" stroke-width="2" marker-end="url(#SvgjsMarker1020)" d="M253 76L253 103.5L253 103.5L253 128.4"/></g><g id="SvgjsG1022" transform="translate(208,132)"><path id="SvgjsPath1023" fill="#fff" fill-opacity="1" stroke="rgba(33,41,48,1)" stroke-width="2" d="M 0 35L 45 0L 90 35L 45 70L 0 35Z"/><g id="SvgjsG1024"><text id="SvgjsText1025" width="70" y="24.375" fill="#323232" align="middle" anchor="middle" family="微软雅黑" font-family="微软雅黑" font-size="13" font-weight="400" lineHeight="125%" opacity="1" size="13" text-anchor="middle" transform="rotate(0)" weight="400"><tspan id="SvgjsTspan1026" x="45" dy="16"><tspan id="SvgjsTspan1027" style="fill:#323232">在豆瓣搜索</tspan></tspan></text></g></g><g id="SvgjsG1028" transform="translate(61,220)"><path id="SvgjsPath1029" fill="#fff" fill-opacity="1" stroke="rgba(33,41,48,1)" stroke-width="2" d="M 0 0L 100 0L 100 70L 0 70Z"/><g id="SvgjsG1030"><text id="SvgjsText1031" width="80" y="15.875" fill="#323232" align="middle" anchor="middle" family="微软雅黑" font-family="微软雅黑" font-size="13" font-weight="400" lineHeight="125%" opacity="1" size="13" text-anchor="middle" transform="rotate(0)" weight="400"><tspan id="SvgjsTspan1032" x="50" dy="16"><tspan id="SvgjsTspan1033">加入豆瓣想读</tspan></tspan><tspan id="SvgjsTspan1034" x="50" dy="16"><tspan id="SvgjsTspan1035">列表</tspan></tspan></text></g></g><g id="SvgjsG1036"><path id="SvgjsPath1037" fill="none" stroke="#323232" stroke-width="2" marker-end="url(#SvgjsMarker1038)" d="M207 167L111 167L111 216.39999999999998"/><rect id="SvgjsRect1040" width="65" height="16" x="126.033" y="159" fill="#fff"/><text id="SvgjsText1041" width="65" y="156.375" fill="#323232" align="top" anchor="middle" family="微软雅黑" font-family="微软雅黑" font-size="13" font-weight="400" lineHeight="16" opacity="1" size="13" text-anchor="middle" transform="rotate(0)" weight="400"><tspan id="SvgjsTspan1042" x="158.533" dy="16"><tspan id="SvgjsTspan1043">可以搜索到</tspan></tspan></text></g><g id="SvgjsG1044" transform="translate(366,220)"><path id="SvgjsPath1045" fill="#fff" fill-opacity="1" stroke="rgba(33,41,48,1)" stroke-width="2" d="M 0 0L 100 0L 100 70L 0 70Z"/><g id="SvgjsG1046"><text id="SvgjsText1047" width="80" y="15.875" fill="#323232" align="middle" anchor="middle" family="微软雅黑" font-family="微软雅黑" font-size="13" font-weight="400" lineHeight="125%" opacity="1" size="13" text-anchor="middle" transform="rotate(0)" weight="400"><tspan id="SvgjsTspan1048" x="50" dy="16"><tspan id="SvgjsTspan1049">加入关于书的</tspan></tspan><tspan id="SvgjsTspan1050" x="50" dy="16"><tspan id="SvgjsTspan1051">ToDoList</tspan></tspan></text></g></g><g id="SvgjsG1052"><path id="SvgjsPath1053" fill="none" stroke="#323232" stroke-width="2" marker-end="url(#SvgjsMarker1054)" d="M299 167L416 167L416 216.39999999999998"/><rect id="SvgjsRect1056" width="52" height="16" x="336.251" y="159" fill="#fff"/><text id="SvgjsText1057" width="52" y="156.375" fill="#323232" align="top" anchor="middle" family="微软雅黑" font-family="微软雅黑" font-size="13" font-weight="400" lineHeight="16" opacity="1" size="13" text-anchor="middle" transform="rotate(0)" weight="400"><tspan id="SvgjsTspan1058" x="362.251" dy="16"><tspan id="SvgjsTspan1059">搜索不到</tspan></tspan></text></g><g id="SvgjsG1060" transform="translate(194,350)"><path id="SvgjsPath1061" fill="#fff" fill-opacity="1" stroke="rgba(33,41,48,1)" stroke-width="2" d="M 0 40.5L 59 0L 118 40.5L 59 81L 0 40.5Z"/><g id="SvgjsG1062"><text id="SvgjsText1063" width="98" y="29.875" fill="#323232" align="middle" anchor="middle" family="微软雅黑" font-family="微软雅黑" font-size="13" font-weight="400" lineHeight="125%" opacity="1" size="13" text-anchor="middle" transform="rotate(0)" weight="400"><tspan id="SvgjsTspan1064" x="59" dy="16"><tspan id="SvgjsTspan1065">查找图书馆资源</tspan></tspan></text></g></g><g id="SvgjsG1066"><path id="SvgjsPath1067" fill="none" stroke="#323232" stroke-width="2" marker-end="url(#SvgjsMarker1068)" d="M111 291L111 320L253 320L253 346.4"/></g><g id="SvgjsG1070"><path id="SvgjsPath1071" fill="none" stroke="#323232" stroke-width="2" marker-end="url(#SvgjsMarker1072)" d="M416 291L416 320L253 320L253 346.4"/></g><g id="SvgjsG1074" transform="translate(50,480)"><path id="SvgjsPath1075" fill="#fff" fill-opacity="1" stroke="rgba(33,41,48,1)" stroke-width="2" d="M 0 0L 100 0L 100 70L 0 70Z"/><g id="SvgjsG1076"><text id="SvgjsText1077" width="80" y="24.375" fill="#323232" align="middle" anchor="middle" family="微软雅黑" font-family="微软雅黑" font-size="13" font-weight="400" lineHeight="125%" opacity="1" size="13" text-anchor="middle" transform="rotate(0)" weight="400"><tspan id="SvgjsTspan1078" x="50" dy="16"><tspan id="SvgjsTspan1079">借阅</tspan></tspan></text></g></g><g id="SvgjsG1080" transform="translate(390,480)"><path id="SvgjsPath1081" fill="#fff" fill-opacity="1" stroke="rgba(33,41,48,1)" stroke-width="2" d="M 0 0L 100 0L 100 70L 0 70Z"/><g id="SvgjsG1082"><text id="SvgjsText1083" width="80" y="24.375" fill="#323232" align="middle" anchor="middle" family="微软雅黑" font-family="微软雅黑" font-size="13" font-weight="400" lineHeight="125%" opacity="1" size="13" text-anchor="middle" transform="rotate(0)" weight="400"><tspan id="SvgjsTspan1084" x="50" dy="16"><tspan id="SvgjsTspan1085">购买</tspan></tspan></text></g></g><g id="SvgjsG1086" transform="translate(535.5,480)"><path id="SvgjsPath1087" fill="#fff" fill-opacity="1" stroke="rgba(33,41,48,1)" stroke-width="2" d="M 0 35L 50 0L 100 35L 50 70L 0 35Z"/><g id="SvgjsG1088"><text id="SvgjsText1089" width="80" y="24.375" fill="#323232" align="middle" anchor="middle" family="微软雅黑" font-family="微软雅黑" font-size="13" font-weight="400" lineHeight="125%" opacity="1" size="13" text-anchor="middle" transform="rotate(0)" weight="400"><tspan id="SvgjsTspan1090" x="50" dy="16"><tspan id="SvgjsTspan1091">多抓鱼</tspan></tspan></text></g></g><g id="SvgjsG1092" transform="translate(655.5,480)"><path id="SvgjsPath1093" fill="#fff" fill-opacity="1" stroke="rgba(33,41,48,1)" stroke-width="2" d="M 0 35L 50 0L 100 35L 50 70L 0 35Z"/><g id="SvgjsG1094"><text id="SvgjsText1095" width="80" y="24.375" fill="#323232" align="middle" anchor="middle" family="微软雅黑" font-family="微软雅黑" font-size="13" font-weight="400" lineHeight="125%" opacity="1" size="13" text-anchor="middle" transform="rotate(0)" weight="400"><tspan id="SvgjsTspan1096" x="50" dy="16"><tspan id="SvgjsTspan1097">当当</tspan></tspan></text></g></g><g id="SvgjsG1098" transform="translate(775.5,475.5234375)"><path id="SvgjsPath1099" fill="#fff" fill-opacity="1" stroke="rgba(33,41,48,1)" stroke-width="2" d="M 0 39.4765625L 59 0L 118 39.4765625L 59 78.953125L 0 39.4765625Z"/><g id="SvgjsG1100"><text id="SvgjsText1101" width="98" y="28.852" fill="#323232" align="middle" anchor="middle" family="微软雅黑" font-family="微软雅黑" font-size="13" font-weight="400" lineHeight="125%" opacity="1" size="13" text-anchor="middle" transform="rotate(0)" weight="400"><tspan id="SvgjsTspan1102" x="59" dy="16"><tspan id="SvgjsTspan1103">出版社推荐渠道</tspan></tspan></text></g></g><g id="SvgjsG1104"><path id="SvgjsPath1105" fill="none" stroke="#323232" stroke-width="2" marker-end="url(#SvgjsMarker1106)" d="M193 390.5L100 390.5L100 476.4"/><rect id="SvgjsRect1108" width="13" height="16" x="142.628" y="382.5" fill="#fff"/><text id="SvgjsText1109" width="13" y="379.875" fill="#323232" align="top" anchor="middle" family="微软雅黑" font-family="微软雅黑" font-size="13" font-weight="400" lineHeight="16" opacity="1" size="13" text-anchor="middle" transform="rotate(0)" weight="400"><tspan id="SvgjsTspan1110" x="149.128" dy="16"><tspan id="SvgjsTspan1111">有</tspan></tspan></text></g><g id="SvgjsG1112"><path id="SvgjsPath1113" fill="none" stroke="#323232" stroke-width="2" marker-end="url(#SvgjsMarker1114)" d="M313 390.5L349.9333333333334 390.5L349.9333333333334 390.5L384.26666666666665 390.5"/><rect id="SvgjsRect1116" width="26" height="16" x="330.999" y="382.5" fill="#fff"/><text id="SvgjsText1117" width="26" y="379.875" fill="#323232" align="top" anchor="middle" family="微软雅黑" font-family="微软雅黑" font-size="13" font-weight="400" lineHeight="16" opacity="1" size="13" text-anchor="middle" transform="rotate(0)" weight="400"><tspan id="SvgjsTspan1118" x="343.999" dy="16"><tspan id="SvgjsTspan1119">没有</tspan></tspan></text></g><g id="SvgjsG1120" transform="translate(389,355.5)"><path id="SvgjsPath1121" fill="#fff" fill-opacity="1" stroke="rgba(33,41,48,1)" stroke-width="2" d="M 0 35L 51 0L 102 35L 51 70L 0 35Z"/><g id="SvgjsG1122"><text id="SvgjsText1123" width="82" y="24.375" fill="#323232" align="middle" anchor="middle" family="微软雅黑" font-family="微软雅黑" font-size="13" font-weight="400" lineHeight="125%" opacity="1" size="13" text-anchor="middle" transform="rotate(0)" weight="400"><tspan id="SvgjsTspan1124" x="51" dy="16"><tspan id="SvgjsTspan1125">根据喜欢程度</tspan></tspan></text></g></g><g id="SvgjsG1126"><path id="SvgjsPath1127" fill="none" stroke="#323232" stroke-width="2" marker-end="url(#SvgjsMarker1128)" d="M440 426.5L440 452.75L440 452.75L440 476.4"/><rect id="SvgjsRect1130" width="26" height="16" x="427" y="432.692" fill="#fff"/><text id="SvgjsText1131" width="26" y="430.067" fill="#323232" align="top" anchor="middle" family="微软雅黑" font-family="微软雅黑" font-size="13" font-weight="400" lineHeight="16" opacity="1" size="13" text-anchor="middle" transform="rotate(0)" weight="400"><tspan id="SvgjsTspan1132" x="440" dy="16"><tspan id="SvgjsTspan1133">喜欢</tspan></tspan></text></g><g id="SvgjsG1134"><path id="SvgjsPath1135" fill="none" stroke="#323232" stroke-width="2" marker-end="url(#SvgjsMarker1136)" d="M440 354.5L440 319.75L416 319.75L416 293.6"/><rect id="SvgjsRect1138" width="52" height="16" x="414" y="324.208" fill="#fff"/><text id="SvgjsText1139" width="52" y="321.583" fill="#323232" align="top" anchor="middle" family="微软雅黑" font-family="微软雅黑" font-size="13" font-weight="400" lineHeight="16" opacity="1" size="13" text-anchor="middle" transform="rotate(0)" weight="400"><tspan id="SvgjsTspan1140" x="440" dy="16"><tspan id="SvgjsTspan1141">感觉一般</tspan></tspan></text></g><g id="SvgjsG1142" transform="translate(913.5,462.5234375)"><path id="SvgjsPath1143" fill="#fff" fill-opacity="1" stroke="rgba(33,41,48,1)" stroke-width="2" d="M 0 52.4765625L 72.5 0L 145 52.4765625L 72.5 104.953125L 0 52.4765625Z"/><g id="SvgjsG1144"><text id="SvgjsText1145" width="125" y="33.352" fill="#323232" align="middle" anchor="middle" family="微软雅黑" font-family="微软雅黑" font-size="13" font-weight="400" lineHeight="125%" opacity="1" size="13" text-anchor="middle" transform="rotate(0)" weight="400"><tspan id="SvgjsTspan1146" x="72.5" dy="16"><tspan id="SvgjsTspan1147">京东或者其他可以买</tspan></tspan><tspan id="SvgjsTspan1148" x="72.5" dy="16"><tspan id="SvgjsTspan1149">到正版的渠道</tspan></tspan></text></g></g><g id="SvgjsG1150"><path id="SvgjsPath1151" fill="none" stroke="#323232" stroke-width="2" marker-end="url(#SvgjsMarker1152)" d="M491 515L512.75 515L512.75 515L531.9000000000001 515"/></g><g id="SvgjsG1154"><path id="SvgjsPath1155" fill="none" stroke="#323232" stroke-width="2" marker-end="url(#SvgjsMarker1156)" d="M636.5 515L645.5 515L645.5 515L651.9000000000001 515"/></g><g id="SvgjsG1158"><path id="SvgjsPath1159" fill="none" stroke="#323232" stroke-width="2" marker-end="url(#SvgjsMarker1160)" d="M756.5 515L765.5 515L765.5 515L771.9000000000001 515"/></g><g id="SvgjsG1162"><path id="SvgjsPath1163" fill="none" stroke="#323232" stroke-width="2" marker-end="url(#SvgjsMarker1164)" d="M894.5 515L903.5 515L903.5 515L909.9000000000001 515"/></g><g id="SvgjsG1166" transform="translate(266,666.796875)"><path id="SvgjsPath1167" fill="#fff" fill-opacity="1" stroke="rgba(33,41,48,1)" stroke-width="2" d="M 0 0L 100 0L 100 70L 0 70Z"/><g id="SvgjsG1168"><text id="SvgjsText1169" width="80" y="24.375" fill="#323232" align="middle" anchor="middle" family="微软雅黑" font-family="微软雅黑" font-size="13" font-weight="400" lineHeight="125%" opacity="1" size="13" text-anchor="middle" transform="rotate(0)" weight="400"><tspan id="SvgjsTspan1170" x="50" dy="16"><tspan id="SvgjsTspan1171">阅读</tspan></tspan></text></g></g><g id="SvgjsG1172"><path id="SvgjsPath1173" fill="none" stroke="#323232" stroke-width="2" marker-end="url(#SvgjsMarker1174)" d="M316 737.796875L316 754.3984375L316 754.3984375L316 768.4"/></g><g id="SvgjsG1176" transform="translate(271,772)"><path id="SvgjsPath1177" fill="#fff" fill-opacity="1" stroke="rgba(33,41,48,1)" stroke-width="2" d="M 0 46L 45 0L 90 46L 45 92L 0 46Z"/><g id="SvgjsG1178"><text id="SvgjsText1179" width="70" y="26.875" fill="#323232" align="middle" anchor="middle" family="微软雅黑" font-family="微软雅黑" font-size="13" font-weight="400" lineHeight="125%" opacity="1" size="13" text-anchor="middle" transform="rotate(0)" weight="400"><tspan id="SvgjsTspan1180" x="45" dy="16"><tspan id="SvgjsTspan1181">更具喜欢程</tspan></tspan><tspan id="SvgjsTspan1182" x="45" dy="16"><tspan id="SvgjsTspan1183">度</tspan></tspan></text></g></g><g id="SvgjsG1184"><path id="SvgjsPath1185" fill="none" stroke="#323232" stroke-width="2" marker-end="url(#SvgjsMarker1186)" d="M316 865L316 896.25L316 896.25L316 924.9"/><rect id="SvgjsRect1188" width="26" height="16" x="303" y="875.574" fill="#fff"/><text id="SvgjsText1189" width="26" y="872.949" fill="#323232" align="top" anchor="middle" family="微软雅黑" font-family="微软雅黑" font-size="13" font-weight="400" lineHeight="16" opacity="1" size="13" text-anchor="middle" transform="rotate(0)" weight="400"><tspan id="SvgjsTspan1190" x="316" dy="16"><tspan id="SvgjsTspan1191">通常</tspan></tspan></text></g><g id="SvgjsG1192" transform="translate(266,928.5)"><path id="SvgjsPath1193" fill="#fff" fill-opacity="1" stroke="rgba(33,41,48,1)" stroke-width="2" d="M 0 0L 100 0L 100 70L 0 70Z"/><g id="SvgjsG1194"><text id="SvgjsText1195" width="80" y="24.375" fill="#323232" align="middle" anchor="middle" family="微软雅黑" font-family="微软雅黑" font-size="13" font-weight="400" lineHeight="125%" opacity="1" size="13" text-anchor="middle" transform="rotate(0)" weight="400"><tspan id="SvgjsTspan1196" x="50" dy="16"><tspan id="SvgjsTspan1197">在豆瓣标记</tspan></tspan></text></g></g><g id="SvgjsG1198"><path id="SvgjsPath1199" fill="none" stroke="#323232" stroke-width="2" marker-end="url(#SvgjsMarker1200)" d="M362 818L426 818L426 818L487.4000000000001 818"/><rect id="SvgjsRect1202" width="52" height="16" x="394.021" y="810" fill="#fff"/><text id="SvgjsText1203" width="52" y="807.375" fill="#323232" align="top" anchor="middle" family="微软雅黑" font-family="微软雅黑" font-size="13" font-weight="400" lineHeight="16" opacity="1" size="13" text-anchor="middle" transform="rotate(0)" weight="400"><tspan id="SvgjsTspan1204" x="420.021" dy="16"><tspan id="SvgjsTspan1205">特别喜欢</tspan></tspan></text></g><g id="SvgjsG1206" transform="translate(491,783)"><path id="SvgjsPath1207" fill="#fff" fill-opacity="1" stroke="rgba(33,41,48,1)" stroke-width="2" d="M 0 0L 100 0L 100 70L 0 70Z"/><g id="SvgjsG1208"><text id="SvgjsText1209" width="80" y="24.375" fill="#323232" align="middle" anchor="middle" family="微软雅黑" font-family="微软雅黑" font-size="13" font-weight="400" lineHeight="125%" opacity="1" size="13" text-anchor="middle" transform="rotate(0)" weight="400"><tspan id="SvgjsTspan1210" x="50" dy="16"><tspan id="SvgjsTspan1211">收藏</tspan></tspan></text></g></g><g id="SvgjsG1212"><path id="SvgjsPath1213" fill="none" stroke="#323232" stroke-width="2" marker-end="url(#SvgjsMarker1214)" d="M541 782L541 655.5L440 655.5L440 553.6"/></g><g id="SvgjsG1216"><path id="SvgjsPath1217" fill="none" stroke="#323232" stroke-width="2" marker-end="url(#SvgjsMarker1218)" d="M270 818L198 818L198 818L128.60000000000002 818"/><rect id="SvgjsRect1220" width="91" height="16" x="153.216" y="810" fill="#fff"/><text id="SvgjsText1221" width="91" y="807.375" fill="#323232" align="top" anchor="middle" family="微软雅黑" font-family="微软雅黑" font-size="13" font-weight="400" lineHeight="16" opacity="1" size="13" text-anchor="middle" transform="rotate(0)" weight="400"><tspan id="SvgjsTspan1222" x="198.716" dy="16"><tspan id="SvgjsTspan1223">很有感悟或收获</tspan></tspan></text></g><g id="SvgjsG1224" transform="translate(25,783)"><path id="SvgjsPath1225" fill="#fff" fill-opacity="1" stroke="rgba(33,41,48,1)" stroke-width="2" d="M 0 0L 100 0L 100 70L 0 70Z"/><g id="SvgjsG1226"><text id="SvgjsText1227" width="80" y="24.375" fill="#323232" align="middle" anchor="middle" family="微软雅黑" font-family="微软雅黑" font-size="13" font-weight="400" lineHeight="125%" opacity="1" size="13" text-anchor="middle" transform="rotate(0)" weight="400"><tspan id="SvgjsTspan1228" x="50" dy="16"><tspan id="SvgjsTspan1229">整理与记录</tspan></tspan></text></g></g><g id="SvgjsG1230"><path id="SvgjsPath1231" fill="none" stroke="#323232" stroke-width="2" marker-end="url(#SvgjsMarker1232)" d="M151 515L316 515L316 663.196875"/></g><g id="SvgjsG1234"><path id="SvgjsPath1235" fill="none" stroke="#323232" stroke-width="2" marker-end="url(#SvgjsMarker1236)" d="M389 515L316 515L316 663.196875"/></g></svg>